# xmcd
#
# Track frame offsets: 
#        150
#        19337
#        36101
#        61092
#        91436
#
# Disc length: 1405 seconds
#
# Revision: 0
# Processed by: cddbd v1.5.2PL0 Copyright (c) Steve Scherf et al.
# Submitted via: ExactAudioCopyFreeDBPlugin 1.0
#
DISCID=37057b05
DTITLE=R. Kelly - Same Girl
DYEAR=2007
DGENRE=R&B
TTITLE0=Same Girl (Duet With Usher)
TTITLE1=Good Sex (Feat. Twista)
TTITLE2=I'm A Flirt (Mysto and Pizzi Remix) (Feat. T.I. and T-Pain)
TTITLE3=Same Girl (Instrumental)
TTITLE4=DATA
EXTD=
EXTT0=
EXTT1=
EXTT2=
EXTT3=
EXTT4=
PLAYORDER=
